<?xml version="1.0" encoding="utf-8"?>
<!-- Svg Vector Icons : http://www.onlinewebfonts.com/icon -->
<!DOCTYPE svg PUBLIC "-//W3C//DTD SVG 1.1//EN" "http://www.w3.org/Graphics/SVG/1.1/DTD/svg11.dtd">
<svg version="1.1" xmlns="http://www.w3.org/2000/svg" xmlns:xlink="http://www.w3.org/1999/xlink" x="0px" y="0px" viewBox="0 0 256 256" enable-background="new 0 0 256 256" xml:space="preserve">
<metadata> Svg Vector Icons : http://www.onlinewebfonts.com/icon </metadata>
<g><g><g><path fill="#000000" d="M118.1,10.3c-9.4,1.2-18.9,4.2-28.1,8.9c-14.7,7.6-24.4,18.9-29.2,34c-3,9.6-3.4,18.9-1.1,30c1.6,7.7,1.7,10.7,0.7,15.3c-0.8,4.1-2,6.7-5.4,11.9c-7.5,11.6-12,23.7-13.8,37.1c-1.1,8.1-0.7,20.4,0.9,28.1c7.5,35.8,35.4,62.8,71.6,69.4c7,1.3,20.3,1.4,27.3,0.2c18.9-3.2,34.1-10.7,47.5-23.6c21.5-20.7,30.8-50.7,25-80.2c-2.1-10.4-6.6-21.3-13-31.2c-6.1-9.4-7.1-15.7-4.4-26.7c1.1-4.7,1.3-6.3,1.3-13.1c0-10.7-1.4-16.8-6-26.1c-8.7-17.2-26.3-29-49.9-33.4C137.1,10,122.9,9.7,118.1,10.3z M140,18.5c11.7,1.9,23.5,7,32,13.7c5.9,4.8,10.1,10,13.6,17.4c3.1,6.6,4,10.5,4.2,18.9c0.2,6.7,0.1,7.7-1,12.6c-1.7,7.1-2,13.6-1,18.7c1.1,5.2,2.5,8.5,6.3,14.5c8.8,13.7,12.8,26.1,13.4,41.3c0.4,10.4-0.8,18.8-3.9,28.2c-8.5,25.7-29.9,45.6-55.9,52.2c-7.5,1.9-13.9,2.5-22.4,2.2c-15.4-0.5-28.4-4.7-41.5-13.4c-7.3-4.9-17-14.6-21.8-21.9c-6.3-9.7-10.6-20.1-12.5-30.8c-1.4-7.6-1.4-19.5,0-27.2c1.9-10.4,6.1-20.9,12.2-30.4c1.5-2.3,3.2-5.4,3.9-6.8c3.4-7.4,4-16.2,1.8-25.3c-1.1-4.5-1.3-6.2-1.3-12.5c0-6.3,0.2-7.8,1.3-11.9c2.3-8.7,6.6-16.2,12.8-22.3c4.8-4.7,8.3-7.2,15.3-10.5C109.6,18.2,124.4,16,140,18.5z"/><path fill="#000000" d="M118.6,37.1c-9,1.7-17.9,5.9-22.5,10.5c-5,5-7.7,11.4-7.7,18.4c0,3.6,0.1,4.6,1.2,6.8c2.3,5,7.3,8.6,12.6,9.1c1.7,0.2,4.2-0.1,8.1-0.9c11.8-2.6,23-2.6,33.9-0.2c6.7,1.4,11,1.4,14.4-0.3c5.5-2.7,8.8-8.1,8.8-14.5c0-7-2.6-13.2-7.7-18.4c-2.8-2.8-4.2-3.7-8.6-5.9c-8-3.9-12.5-5-21.6-5.2C124.4,36.5,120.9,36.6,118.6,37.1z M138.6,45.3c9,2.1,16.7,7.2,19.4,12.8c3.2,6.6,2.4,12.6-2,15.1c-2.2,1.2-4.5,1.3-8.8,0.3c-11.2-2.6-25.7-2.7-36.3-0.3c-1.8,0.4-4.6,0.8-6.3,0.9c-2.6,0.2-3.3,0.1-4.6-0.9c-2.6-1.8-3.5-3.3-3.7-6.6c-0.3-4.9,2-10.4,5.9-13.9c3.9-3.5,12.5-7.2,19.2-8.2C125.6,43.7,133.9,44.1,138.6,45.3z"/><path fill="#000000" d="M86.7,100.9c-4.5,3-14.2,12.9-17.6,18.1c-3.5,5.3-6.1,10.4-6.1,11.8c0,1.9,1.7,3.6,3.5,3.6c2.5,0,3-0.4,4.7-3.7c4.2-8.5,11.8-17.4,19.6-23.2c3.4-2.6,3.7-2.9,3.9-4.6c0.1-1.4-0.1-2.1-0.9-2.9C92.1,98.3,90.2,98.6,86.7,100.9z"/><path fill="#000000" d="M60.6,139.7c-1.4,0.8-2,2.2-2.9,7.9c-1,6.2-0.9,8.5,0.5,9.8c1.4,1.4,3.4,1.5,4.9,0.3c0.8-0.7,1.2-1.8,1.9-6.4c0.5-3,1-6.3,1.2-7.3c0.3-2.2-0.5-3.9-2.3-4.5C62.1,138.9,62.1,138.9,60.6,139.7z"/><path fill="#000000" d="M191.2,171.9c-1,0.6-1.5,1.5-2.5,4.7c-2.6,8.6-6.5,16-12,22.9c-2.8,3.5-3.3,4.5-3.2,6.4c0.1,2.3,3.8,3.5,6,2c1.5-1.1,6.7-7.9,9.2-12.2c2.9-4.9,4.9-9.4,6.7-14.8c2-6.2,1.9-7.7-0.7-9C193.4,171.1,192.7,171.1,191.2,171.9z"/></g></g></g>
</svg>